{
	"asset":{
		"generator":"Khronos glTF Blender I/O v3.5.30",
		"version":"2.0"
	},
	"scene":0,
	"scenes":[
		{
			"name":"Scene",
			"nodes":[
				0
			]
		}
	],
	"nodes":[
		{
			"mesh":0,
			"name":"Cerberus00_Fixed.001",
			"scale":[
				0.009999999776482582,
				0.009999999776482582,
				0.009999999776482582
			]
		}
	],
	"materials":[
		{
			"doubleSided":true,
			"name":"08 - Default.001",
			"normalTexture":{
				"index":0
			},
			"occlusionTexture":{
				"index":1
			},
			"pbrMetallicRoughness":{
				"baseColorTexture":{
					"index":2
				},
				"metallicRoughnessTexture":{
					"index":3
				}
			}
		},
		{
			"doubleSided":true,
			"name":"Material.001",
			"normalTexture":{
				"index":4
			},
			"pbrMetallicRoughness":{
				"baseColorFactor":[
					1,
					0.0050032977014780045,
					0,
					1
				],
				"roughnessFactor":0
			}
		}
	],
	"meshes":[
		{
			"name":"Mesh.001",
			"primitives":[
				{
					"attributes":{
						"POSITION":0,
						"TEXCOORD_0":1,
						"NORMAL":2
					},
					"indices":3,
					"material":0
				},
				{
					"attributes":{
						"POSITION":4,
						"TEXCOORD_0":5,
						"NORMAL":6
					},
					"indices":7,
					"material":1
				}
			]
		}
	],
	"textures":[
		{
			"sampler":0,
			"source":0
		},
		{
			"sampler":0,
			"source":1
		},
		{
			"sampler":0,
			"source":2
		},
		{
			"sampler":0,
			"source":3
		},
		{
			"sampler":0,
			"source":0
		}
	],
	"images":[
		{
			"mimeType":"image/png",
			"name":"Cerberus_N",
			"uri":"Cerberus_N.png"
		},
		{
			"mimeType":"image/png",
			"name":"AO_BAKED",
			"uri":"AO_BAKED.png"
		},
		{
			"mimeType":"image/png",
			"name":"Cerberus_A",
			"uri":"Cerberus_A.png"
		},
		{
			"mimeType":"image/png",
			"name":"Cerberus_M-Cerberus_R",
			"uri":"Cerberus_M-Cerberus_R.png"
		}
	],
	"accessors":[
		{
			"bufferView":0,
			"componentType":5126,
			"count":4729,
			"max":[
				13.08946704864502,
				19.02497100830078,
				130.2689666748047
			],
			"min":[
				-20.131521224975586,
				-46.978328704833984,
				-25.953563690185547
			],
			"type":"VEC3"
		},
		{
			"bufferView":1,
			"componentType":5126,
			"count":4729,
			"type":"VEC2"
		},
		{
			"bufferView":2,
			"componentType":5126,
			"count":4729,
			"type":"VEC3"
		},
		{
			"bufferView":3,
			"componentType":5123,
			"count":10053,
			"type":"SCALAR"
		},
		{
			"bufferView":4,
			"componentType":5126,
			"count":5,
			"max":[
				3.5231080055236816,
				-8.293193817138672,
				127.82421112060547
			],
			"min":[
				3.428445339202881,
				-31.048494338989258,
				109.96763610839844
			],
			"type":"VEC3"
		},
		{
			"bufferView":5,
			"componentType":5126,
			"count":5,
			"type":"VEC2"
		},
		{
			"bufferView":6,
			"componentType":5126,
			"count":5,
			"type":"VEC3"
		},
		{
			"bufferView":7,
			"componentType":5123,
			"count":9,
			"type":"SCALAR"
		}
	],
	"bufferViews":[
		{
			"buffer":0,
			"byteLength":56748,
			"byteOffset":0,
			"target":34962
		},
		{
			"buffer":0,
			"byteLength":37832,
			"byteOffset":56748,
			"target":34962
		},
		{
			"buffer":0,
			"byteLength":56748,
			"byteOffset":94580,
			"target":34962
		},
		{
			"buffer":0,
			"byteLength":20106,
			"byteOffset":151328,
			"target":34963
		},
		{
			"buffer":0,
			"byteLength":60,
			"byteOffset":171436,
			"target":34962
		},
		{
			"buffer":0,
			"byteLength":40,
			"byteOffset":171496,
			"target":34962
		},
		{
			"buffer":0,
			"byteLength":60,
			"byteOffset":171536,
			"target":34962
		},
		{
			"buffer":0,
			"byteLength":18,
			"byteOffset":171596,
			"target":34963
		}
	],
	"samplers":[
		{
			"magFilter":9729,
			"minFilter":9987
		}
	],
	"buffers":[
		{
			"byteLength":171616,
			"uri":"Cerberus_LP.bin"
		}
	]
}
